HIERARCHY
ROOT Hips
{
	OFFSET 54.064400 -7.639425 91.553596
	CHANNELS 6 Xposition Yposition Zposition Xrotation Yrotation Zrotation
	JOINT spine
	{
		OFFSET 0.000000 -0.393701 6.846367
		CHANNELS 3 Xrotation Yrotation Zrotation
		JOINT spine1
		{
			OFFSET 0.000000 -0.000001 9.496208
			CHANNELS 3 Xrotation Yrotation Zrotation
			JOINT spine2
			{
				OFFSET 0.000000 -0.000002 9.099091
				CHANNELS 3 Xrotation Yrotation Zrotation
				JOINT Neck
				{
					OFFSET 0.000000 -1.113784 23.361198
					CHANNELS 3 Xrotation Yrotation Zrotation
					JOINT Head
					{
						OFFSET 0.000000 -0.000001 7.058014
						CHANNELS 3 Xrotation Yrotation Zrotation
						End Site
						{
							OFFSET 0.000000 5.634187 17.084396
						}
					}
				}
				JOINT RightShoulder
				{
					OFFSET -3.831360 0.533490 9.826309
					CHANNELS 3 Xrotation Yrotation Zrotation
					JOINT RightArm
					{
						OFFSET 0.000000 -0.000002 12.888100
						CHANNELS 3 Xrotation Yrotation Zrotation
						JOINT RightArmRoll
						{
							OFFSET 0.000000 -0.000001 6.506165
							CHANNELS 3 Xrotation Yrotation Zrotation
							JOINT RightForeArm
							{
								OFFSET 0.000000 -0.000003 18.950104
								CHANNELS 3 Xrotation Yrotation Zrotation
								JOINT RightForeArmRoll
								{
									OFFSET 0.000000 -0.000001 7.300919
									CHANNELS 3 Xrotation Yrotation Zrotation
									JOINT RightHand
									{
										OFFSET 0.000000 -0.000002 14.651398
										CHANNELS 3 Xrotation Yrotation Zrotation
										End Site
										{
											OFFSET 0.000000 0.000000 0.100006
										}
									}
								}
							}
						}
					}
				}
				JOINT LeftShoulder
				{
					OFFSET 3.831360 0.533490 9.826309
					CHANNELS 3 Xrotation Yrotation Zrotation
					JOINT LeftArm
					{
						OFFSET 0.000000 -0.000002 12.888100
						CHANNELS 3 Xrotation Yrotation Zrotation
						JOINT LeftArmRoll
						{
							OFFSET 0.000000 -0.000001 6.506165
							CHANNELS 3 Xrotation Yrotation Zrotation
							JOINT LeftForeArm
							{
								OFFSET 0.000000 -0.000003 18.950104
								CHANNELS 3 Xrotation Yrotation Zrotation
								JOINT LeftForeArmRoll
								{
									OFFSET 0.000000 -0.000001 7.300919
									CHANNELS 3 Xrotation Yrotation Zrotation
									JOINT LeftHand
									{
										OFFSET 0.000000 -0.000002 14.651398
										CHANNELS 3 Xrotation Yrotation Zrotation
										End Site
										{
											OFFSET 0.000000 0.000000 0.100006
										}
									}
								}
							}
						}
					}
				}
			}
		}
	}
	JOINT RightUpLeg
	{
		OFFSET -6.068371 0.933477 -1.112778
		CHANNELS 3 Xrotation Yrotation Zrotation
		JOINT RightUpLegRoll
		{
			OFFSET 0.000000 -0.000003 17.179604
			CHANNELS 3 Xrotation Yrotation Zrotation
			JOINT RightLeg
			{
				OFFSET 0.000000 0.000003 -21.274300
				CHANNELS 3 Xrotation Yrotation Zrotation
				JOINT RightLegRoll
				{
					OFFSET 0.000000 -0.000003 21.343903
					CHANNELS 3 Xrotation Yrotation Zrotation
					JOINT RightFoot
					{
						OFFSET 0.000000 -0.000003 17.765198
						CHANNELS 3 Xrotation Yrotation Zrotation
						JOINT RightToeBase
						{
							OFFSET 0.000000 -0.000002 14.850807
							CHANNELS 3 Xrotation Yrotation Zrotation
							End Site
							{
								OFFSET 0.006294 0.829003 7.192139
							}
						}
					}
				}
			}
		}
	}
	JOINT LeftUpLeg
	{
		OFFSET 6.068371 0.933477 -1.112778
		CHANNELS 3 Xrotation Yrotation Zrotation
		JOINT LeftUpLegRoll
		{
			OFFSET 0.000000 -0.000003 17.179703
			CHANNELS 3 Xrotation Yrotation Zrotation
			JOINT LeftLeg
			{
				OFFSET 0.000000 -0.000003 21.274193
				CHANNELS 3 Xrotation Yrotation Zrotation
				JOINT LeftLegRoll
				{
					OFFSET 0.000000 -0.000003 21.541199
					CHANNELS 3 Xrotation Yrotation Zrotation
					JOINT LeftFoot
					{
						OFFSET 0.000000 -0.000003 17.567902
						CHANNELS 3 Xrotation Yrotation Zrotation
						JOINT LeftToeBase
						{
							OFFSET 0.000000 -0.000002 14.850800
							CHANNELS 3 Xrotation Yrotation Zrotation
							End Site
							{
								OFFSET -0.028210 0.829002 7.192139
							}
						}
					}
				}
			}
		}
	}
}
MOTION
Frames: 5
Frame Time: 0.041667
54.634796 -6.717635 91.626701 -5.305460 -0.555113 -0.769300 -1.321624 -0.158583 -0.108583 1.350808 -0.297845 -0.213120 2.995882 -0.300316 -0.209395 29.804951 6.003783 -0.058870 -8.619252 -3.800230 0.405394 23.813945 -69.080677 25.019463 -24.754578 -101.897120 -15.527066 -0.000002 -0.000000 -0.000003 12.595028 -14.337563 0.836847 -0.000008 0.000017 -3.000001 -5.000170 -7.998763 0.000164 6.419971 69.879262 -5.827078 -44.241577 108.069705 22.985127 0.000001 0.000004 0.000000 1.814553 12.848871 0.051251 -0.000006 -0.000001 3.004520 -5.000228 7.998725 -0.000155 2.243991 -174.345319 2.224677 179.999991 -0.000005 -1.172000 174.828363 -1.903226 -0.245221 0.000002 0.000002 0.050940 68.903980 6.921982 2.066129 25.456953 -7.355614 0.000000 6.093447 176.282060 -0.172734 -0.000005 -0.000004 -1.218710 -4.332900 1.603566 0.177599 -0.000003 0.000001 -0.036503 68.966722 -6.923093 -2.075812 25.456964 7.355615 -0.000001 
54.642097 -6.724752 91.626701 -5.313890 -0.554030 -0.774009 -1.321814 -0.157916 -0.108576 1.351098 -0.298910 -0.213050 2.996172 -0.301379 -0.209330 29.795177 6.000308 -0.056214 -8.607002 -3.806315 0.407810 23.783209 -69.067863 24.989128 -24.868210 -101.881472 -15.699781 -0.000001 -0.000000 -0.000003 12.618816 -14.377494 0.847958 -0.000008 0.000017 -3.000001 -5.000166 -7.998761 0.000164 6.428762 69.884365 -5.836027 -44.316473 108.028642 23.100004 0.000000 0.000003 0.000001 1.859234 12.890941 0.046776 -0.000003 -0.000000 3.004520 -5.000226 7.998724 -0.000154 2.253158 -174.344362 2.228790 179.999991 -0.000005 -1.172001 174.826137 -1.905205 -0.245475 0.000002 0.000002 0.050940 68.899123 6.921986 2.066133 25.456959 -7.355613 0.000002 6.104959 176.281145 -0.176385 -0.000005 -0.000004 -1.218610 -4.334705 1.605756 0.177598 -0.000003 0.000001 -0.036503 68.966824 -6.923101 -2.075807 25.456962 7.355614 -0.000001 
54.638897 -6.732170 91.622711 -5.322598 -0.552817 -0.778730 -1.321923 -0.157245 -0.108586 1.351618 -0.300090 -0.212986 2.996702 -0.302556 -0.209267 29.784129 5.997490 -0.053368 -8.593978 -3.813100 0.410432 23.751573 -69.054756 24.957883 -24.968033 -101.867818 -15.857502 -0.000001 -0.000000 -0.000003 12.645434 -14.415995 0.859049 -0.000007 0.000018 -3.000001 -5.000169 -7.998763 0.000164 6.435325 69.889255 -5.842572 -44.385759 107.988569 23.210222 0.000001 0.000003 0.000001 1.905440 12.933790 0.042131 -0.000004 -0.000000 3.004518 -5.000226 7.998724 -0.000154 2.262759 -174.343379 2.233065 179.999991 -0.000005 -1.172998 174.824101 -1.908193 -0.245814 0.000002 0.000002 0.050940 68.894165 6.921983 2.066044 25.456957 -7.355613 0.000000 6.116810 176.280229 -0.180202 -0.000005 -0.000004 -1.218510 -4.336471 1.607986 0.177597 -0.000002 0.000001 -0.036503 68.966934 -6.923104 -2.075801 25.456967 7.355614 -0.000001 
54.638397 -6.735817 91.622215 -5.331484 -0.551512 -0.783459 -1.321975 -0.156572 -0.108606 1.352308 -0.301349 -0.212924 2.997382 -0.303813 -0.209209 29.772299 5.995109 -0.050394 -8.580389 -3.820377 0.413203 23.719346 -69.041410 24.926062 -25.060341 -101.854581 -16.006910 -0.000001 0.000001 -0.000003 12.674077 -14.453491 0.870157 -0.000008 0.000016 -3.000000 -5.000169 -7.998763 0.000164 6.440294 69.893900 -5.847406 -44.454191 107.948176 23.320527 0.000001 0.000004 0.000001 1.952721 12.977320 0.037330 -0.000005 -0.000000 3.004520 -5.000230 7.998723 -0.000154 2.272663 -174.341426 2.237490 179.999991 -0.000005 -1.172998 174.822175 -1.911180 -0.245152 0.000002 0.000002 0.050940 68.889001 6.922001 2.066071 25.456953 -7.355615 0.000001 6.128900 176.279328 -0.184136 -0.000005 -0.000004 -1.218400 -4.338217 1.610246 0.177597 -0.000003 0.000001 -0.036503 68.967132 -6.923081 -2.075784 25.456962 7.355613 0.000001 
54.637295 -6.743680 91.625504 -5.340497 -0.550153 -0.788194 -1.321985 -0.155898 -0.108634 1.353089 -0.302655 -0.212864 2.998163 -0.305117 -0.209151 29.759882 5.992999 -0.047343 -8.566504 -3.827933 0.416056 23.686741 -69.027900 24.893862 -25.147515 -101.841966 -16.150701 -0.000002 0.000000 -0.000003 12.703839 -14.490335 0.881263 -0.000007 0.000017 -3.000000 -5.000167 -7.998763 0.000164 6.444340 69.898373 -5.851244 -44.520051 107.908321 23.428693 0.000002 0.000004 0.000003 2.000612 13.021231 0.032416 -0.000003 -0.000000 3.004519 -5.000228 7.998724 -0.000154 2.282747 -174.340469 2.241934 179.999991 -0.000005 -1.172997 174.820345 -1.914153 -0.245482 0.000002 0.000002 0.050940 68.883837 6.922019 2.066097 25.456957 -7.355613 0.000001 6.141140 176.277415 -0.188245 -0.000005 -0.000004 -1.218290 -4.339932 1.612526 0.177597 -0.000003 0.000001 -0.036503 68.967255 -6.923122 -2.075784 25.456962 7.355615 -0.000000 
